<svg xmlns="http://www.w3.org/2000/svg" width="13" height="20" viewBox="0 0 13 20">
  <defs>
    <style>
      .cls-1 {
        fill: #fff;
        fill-rule: evenodd;
      }
    </style>
  </defs>
  <path id="Shape_663_copy_3" data-name="Shape 663 copy 3" class="cls-1" d="M13,9.991a2.325,2.325,0,0,0-.72-1.682L4.392,0.684a2.522,2.522,0,0,0-3.478,0,2.323,2.323,0,0,0,0,3.363L7.058,9.991,0.914,15.934a2.323,2.323,0,0,0,0,3.364,2.486,2.486,0,0,0,1.739.7,2.485,2.485,0,0,0,1.739-.7l7.884-7.624A2.325,2.325,0,0,0,13,9.991Z"/>
</svg>
